<svg width="625" height="668" viewBox="0 0 625 668" fill="none" xmlns="http://www.w3.org/2000/svg">
<path d="M461.821 332.946C461.821 332.946 472.316 383.46 558.876 394.455H559.206C565.858 389.991 573.378 387.924 582.013 387.924C605.069 387.924 623.785 406.65 623.785 429.716C623.785 452.782 605.069 471.508 582.013 471.508C565.115 471.508 549.827 465.1 543.258 450.674H543.01C456.45 439.595 445.955 389.123 445.955 389.123L461.78 332.946H461.821Z" fill="#F3D568" stroke="#231815" stroke-width="2" stroke-miterlimit="10"/>
<path d="M482.769 364.238C482.769 364.238 489.662 436.508 494 437.5C498.338 438.492 476 429.5 476 429.5L452.979 364.279L459.92 344.107L467.357 345.843L482.728 364.279L482.769 364.238Z" fill="#231815"/>
<path d="M163.137 332.946C163.137 332.946 152.643 383.46 66.0826 394.455H65.752C59.0999 389.991 51.5801 387.924 42.9448 387.924C19.8897 387.924 1.17285 406.65 1.17285 429.716C1.17285 452.782 19.8897 471.508 42.9448 471.508C59.8436 471.508 75.1311 465.1 81.7005 450.674H81.9484C168.508 439.595 179.003 389.123 179.003 389.123L163.179 332.946H163.137Z" fill="#F3D568" stroke="#231815" stroke-width="2" stroke-miterlimit="10"/>
<path d="M138.016 368.702C138.016 368.702 149.048 376.556 149.544 389.826C150.039 403.095 139.958 432.072 139.958 432.072L154.667 424.218L179.995 404.418L181.565 371.348C181.565 371.348 170.161 345.347 169.5 345.347C168.839 345.347 154.956 352.044 154.956 352.044L138.016 368.702Z" fill="#231815"/>
<path d="M320.929 459.768V632.97C320.929 651.654 338.034 666.825 359.189 666.825H414.265C424.883 666.825 438.559 660.252 438.559 645.288C438.559 630.324 428.147 621.354 415.339 621.354H388.483C384.186 621.354 380.715 618.254 380.715 614.451V461.587L320.929 454L320.929 459.768Z" fill="#F3D568" stroke="#231815" stroke-width="2" stroke-miterlimit="10"/>
<path d="M321 492C321 492 381.211 503.75 381.211 521.319C381.211 538.887 382.161 459.768 382.161 459.768L321 456.5V492Z" fill="#231815"/>
<path d="M240.236 459.768V632.97C240.236 651.654 257.341 666.825 278.496 666.825H333.572C344.19 666.825 357.866 660.252 357.866 645.288C357.866 630.324 347.454 621.354 334.646 621.354H307.79C303.493 621.354 300.022 618.254 300.022 614.451V457.5L240.194 459.768H240.236Z" fill="#F3D568" stroke="#231815" stroke-width="2" stroke-miterlimit="10"/>
<path d="M300.022 487.712C300.022 487.712 241.227 514.333 241.227 531.942C241.227 549.552 240.194 459.768 240.194 459.768L300.022 457.5V487.712Z" fill="#231815"/>
<path d="M204.372 162.017C235.36 122.664 250.813 1.13367 305.269 1.13367C353.156 1.13367 380.343 153.254 406.332 165.076C432.32 176.899 599.491 170.037 602.838 205.463C606.804 247.544 471.985 326.704 460.21 352.705C448.434 378.706 535.738 513.919 501.114 549.758C476.819 574.891 354.107 461.132 316.342 456.378C278.578 451.624 172.93 566.087 132.934 547.568C99.3432 532.025 163.179 417.149 165.864 378.665C167.558 354.524 14.6838 273.958 19.4766 229.851C23.2778 194.798 181.482 191.077 204.372 162.017Z" fill="#F3D568" stroke="#231815" stroke-width="2" stroke-miterlimit="10"/>
<path d="M268.001 267.303C274.869 267.303 280.438 261.732 280.438 254.86C280.438 247.988 274.869 242.418 268.001 242.418C261.132 242.418 255.564 247.988 255.564 254.86C255.564 261.732 261.132 267.303 268.001 267.303Z" fill="#231815"/>
<path d="M364.188 267.303C371.057 267.303 376.625 261.732 376.625 254.86C376.625 247.988 371.057 242.418 364.188 242.418C357.32 242.418 351.751 247.988 351.751 254.86C351.751 261.732 357.32 267.303 364.188 267.303Z" fill="#231815"/>
<path d="M280.438 316.494H361.42C361.42 316.494 358.073 344.107 323.532 344.107C288.99 344.107 280.479 316.494 280.479 316.494H280.438Z" fill="white" stroke="#231815" stroke-width="2" stroke-linecap="round" stroke-linejoin="round"/>
<path d="M468.289 165.157C485.341 142.11 471.019 102.583 436.3 76.8703C401.581 51.1579 359.612 48.9971 342.56 72.0441C325.508 95.0911 339.83 134.618 374.549 160.331C409.268 186.043 451.237 188.204 468.289 165.157Z" fill="#946134" stroke="#231815" stroke-width="2" stroke-miterlimit="10"/>
<path d="M413.438 83.6837L430.709 60.3697C434.097 55.8226 440.708 56.0293 450.087 63.3046C457.194 68.8024 461.16 74.8376 458.061 78.9713L440.006 103.36" fill="#946134"/>
<path d="M413.438 83.6837L430.709 60.3697C434.097 55.8226 440.708 56.0293 450.087 63.3046C457.194 68.8024 461.16 74.8376 458.061 78.9713L440.006 103.36" stroke="#231815" stroke-width="2" stroke-miterlimit="10"/>
<path d="M442.278 100.301L451 89.5L459.383 99.6398L467.5 113.5L472 126L442.278 100.301Z" fill="#231815" stroke="#231815" stroke-width="2" stroke-miterlimit="10"/>
<path d="M348.033 97.9863C344.603 102.947 383.69 189.134 451.533 166.275" stroke="#502D1A" stroke-width="2" stroke-miterlimit="10" stroke-linecap="round"/>
</svg>
