<svg width="631" height="673" viewBox="0 0 631 673" fill="none" xmlns="http://www.w3.org/2000/svg">
<path d="M166.137 335.054C166.137 335.054 155.643 385.551 69.0828 396.544H68.7523C62.1001 392.081 54.5804 390.014 45.945 390.014C22.8899 390.014 4.1731 408.734 4.1731 431.793C4.1731 454.852 22.8899 473.571 45.945 473.571C62.8439 473.571 78.1313 467.166 84.7008 452.744H84.9487C171.509 441.669 182.003 391.213 182.003 391.213L166.179 335.054H166.137Z" fill="#F3D568" stroke="#231815" stroke-width="2" stroke-miterlimit="10"/>
<path d="M145.19 366.336C145.19 366.336 138.838 438.008 134.5 439C132.103 439.548 138.92 437.44 145.5 434C150.828 431.215 156 427 156 427L174.979 366.377L168.038 346.211L160.601 347.947L145.231 366.377L145.19 366.336Z" fill="#231815"/>
<path d="M464.821 335.054C464.821 335.054 475.316 385.551 561.876 396.544H562.207C568.859 392.081 576.379 390.014 585.014 390.014C608.069 390.014 626.786 408.734 626.786 431.793C626.786 454.852 608.069 473.571 585.014 473.571C568.115 473.571 552.828 467.166 546.258 452.744H546.01C459.45 441.669 448.956 391.213 448.956 391.213L464.78 335.054H464.821Z" fill="#F3D568" stroke="#231815" stroke-width="2" stroke-miterlimit="10"/>
<path d="M489.942 370.799C489.942 370.799 478.911 378.65 478.415 391.915C477.919 405.18 488 434.148 488 434.148L473.291 426.297L447.964 406.503L446.394 373.444C446.394 373.444 463.839 337.5 464.5 337.5C465.161 337.5 474 353.5 474 353.5L489.942 370.799Z" fill="#231815"/>
<path d="M307.071 461.835V634.982C307.071 653.66 289.966 668.826 268.811 668.826H213.735C203.117 668.826 189.441 662.256 189.441 647.297C189.441 632.337 199.853 623.37 212.661 623.37H239.517C243.814 623.37 247.285 620.271 247.285 616.469V463.653L307.113 461.835H307.071Z" fill="#F3D568" stroke="#231815" stroke-width="2" stroke-miterlimit="10"/>
<path d="M307 494C307 494 247.244 523.738 247.244 541.301C247.244 558.864 245.839 461.835 245.839 461.835L307 463V494Z" fill="#231815"/>
<path d="M403.341 437.95L441.973 528.077L471.556 597.088C478.911 614.279 469.16 634.941 449.74 643.288L399.127 665.025C389.376 669.198 374.212 668.578 368.304 654.859C362.395 641.139 368.428 628.742 380.203 623.701L404.87 613.122C408.836 611.428 410.819 607.213 409.291 603.741L387.599 553.161L349.05 463.282L403.3 437.991L403.341 437.95Z" fill="#F3D568" stroke="#231815" stroke-width="2" stroke-miterlimit="10"/>
<path d="M370.122 513.077C370.122 513.077 436.1 513.842 443 530C449.9 546.158 414.083 463.777 414.083 463.777L349.091 463.199L370.122 513.035V513.077Z" fill="#231815"/>
<path d="M395.491 153.229C360.412 117.484 331.779 -1.5703 277.695 4.33901C230.097 9.54581 219.602 163.684 195.101 178.271C170.559 192.817 3.63604 204.222 4.17317 239.802C4.79293 282.035 147.421 346.046 162.006 370.592C176.591 395.138 104.492 539.028 142.752 570.847C169.65 593.204 279.223 466.753 316.285 457.951C353.306 449.149 470.771 551.343 508.535 528.615C540.226 509.523 464.284 402.329 457.426 364.352C453.128 340.55 596.293 243.852 586.749 200.545C579.147 166.122 421.479 179.635 395.573 153.27L395.491 153.229Z" fill="#F3D568" stroke="#231815" stroke-width="2" stroke-miterlimit="10"/>
<path d="M342.356 264.886C349.225 264.886 354.793 259.317 354.793 252.447C354.793 245.578 349.225 240.009 342.356 240.009C335.488 240.009 329.92 245.578 329.92 252.447C329.92 259.317 335.488 264.886 342.356 264.886Z" fill="#231815"/>
<path d="M246.707 275.341C253.575 275.341 259.143 269.772 259.143 262.902C259.143 256.033 253.575 250.464 246.707 250.464C239.838 250.464 234.27 256.033 234.27 262.902C234.27 269.772 239.838 275.341 246.707 275.341Z" fill="#231815"/>
<path d="M358.511 306.871L245.88 319.227C245.88 319.227 254.598 355.592 302.65 350.344C350.702 345.095 358.511 306.912 358.511 306.912V306.871Z" fill="white" stroke="#231815" stroke-width="2" stroke-linecap="round" stroke-linejoin="round"/>
<path d="M468.125 179.596C482.568 154.837 464.029 117.117 426.719 95.3456C389.408 73.5745 347.453 75.997 333.011 100.756C318.568 125.516 337.106 163.236 374.417 185.007C411.727 206.778 453.682 204.356 468.125 179.596Z" fill="#946134" stroke="#231815" stroke-width="2" stroke-miterlimit="10"/>
<path d="M404.663 104.591L419.289 79.5484C422.14 74.6722 428.751 74.1763 438.874 80.3749C446.518 85.0445 451.104 90.6232 448.501 95.0862L433.213 121.285" fill="#946134"/>
<path d="M404.663 104.591L419.289 79.5484C422.14 74.6722 428.751 74.1763 438.874 80.3749C446.518 85.0445 451.104 90.6232 448.501 95.0862L433.213 121.285" stroke="#231815" stroke-width="2" stroke-miterlimit="10"/>
<path d="M435.156 117.98L442.5 107.5L452.096 115.459L461 127L467.5 139.5L435.156 117.98Z" fill="#231815" stroke="#231815" stroke-width="2" stroke-miterlimit="10"/>
<path d="M341.2 125.914C338.307 131.245 386.525 212.611 451.517 182.527" stroke="#502D1A" stroke-width="2" stroke-miterlimit="10" stroke-linecap="round"/>
</svg>
