<svg width="655" height="669" viewBox="0 0 655 669" fill="none" xmlns="http://www.w3.org/2000/svg">
<path d="M278.111 469.692L187.71 617.428C177.954 633.38 155.426 637.347 137.404 626.354L90.4052 597.592C81.3527 592.055 73.0856 579.327 80.898 566.557C88.7105 553.788 102.269 551.556 113.181 558.251L136.081 572.26C139.76 574.492 144.348 573.707 146.333 570.442L226.111 440.062L287.363 454.853L278.111 469.692Z" fill="#F3D568" stroke="#231815" stroke-width="2" stroke-miterlimit="10"/>
<path d="M260.863 497.853C260.863 497.853 176.342 521.307 167.166 536.308C157.989 551.308 225.821 437.748 225.821 437.748L284.863 458.353L261.863 496.353L260.863 497.853Z" fill="#231815"/>
<path d="M466.685 415.97C466.685 415.97 493.015 371.628 578.539 389.356L578.87 389.439C583.706 395.844 590.154 400.266 598.339 403.076C620.164 410.597 643.932 398.985 651.455 377.166C658.978 355.346 647.363 331.584 625.538 324.063C609.541 318.567 593.007 319.641 582.094 331.13H581.846C496.364 313.36 469.991 357.66 469.991 357.66L466.685 415.928V415.97Z" fill="#F3D568" stroke="#231815" stroke-width="2" stroke-miterlimit="10"/>
<path d="M497.151 392.276C493.122 390.73 531.089 328.762 538.649 326.924C542.762 325.921 486.102 335.866 487.805 338.874L470.317 356.382L468.863 404.059L476.465 404.853L497.11 392.276H497.151Z" fill="#231815"/>
<path d="M184.072 400.06C184.072 400.06 160.841 354.024 74.3258 365.843H73.9951C68.7041 371.959 62.0077 375.926 53.6579 378.157C31.3779 384.15 8.43658 370.926 2.44289 348.651C-3.55079 326.377 9.67665 303.442 31.9566 297.45C48.2842 293.07 64.6945 295.26 74.8218 307.492H75.0698C161.586 295.632 184.816 341.668 184.816 341.668L184.072 400.018V400.06Z" fill="#F3D568" stroke="#231815" stroke-width="2" stroke-miterlimit="10"/>
<path d="M150.508 372.041C150.508 372.041 159.106 361.586 156.171 348.651C153.236 335.717 128.517 308.608 128.517 308.608L152.202 314.145L181.799 326.708L191.885 358.239C191.885 358.239 185.932 397.415 185.312 397.58C184.692 397.745 171.363 384.853 171.363 384.853L150.508 372.083V372.041Z" fill="#231815"/>
<path d="M344.785 460.724V633.876C344.785 652.554 361.898 667.721 383.062 667.721H438.163C448.786 667.721 462.468 661.15 462.468 646.19C462.468 631.231 452.052 622.263 439.238 622.263H412.369C408.07 622.263 404.598 619.164 404.598 615.362V462.543L344.744 460.724H344.785Z" fill="#F3D568" stroke="#231815" stroke-width="2" stroke-miterlimit="10"/>
<path d="M345.359 506.12C345.359 506.12 404.18 532.734 404.18 550.338C404.18 567.942 404.717 457.853 404.717 457.853L344.863 459.671L345.4 506.12H345.359Z" fill="#231815"/>
<path d="M242.976 149.59C278.235 114.009 307.377 -4.96523 361.485 1.2335C409.063 6.64705 418.859 160.83 443.371 175.542C467.883 190.253 634.797 202.362 634.136 237.901C633.309 280.135 490.329 343.527 475.655 367.991C460.98 392.456 532.45 536.68 494.008 568.334C467.015 590.567 357.93 463.617 320.935 454.65C283.939 445.682 165.967 547.341 128.269 524.447C96.647 505.231 173.118 398.365 180.145 360.429C184.568 336.667 41.7531 239.306 51.5084 196.039C59.2795 161.657 216.934 175.872 243.017 149.59H242.976Z" fill="#F3D568" stroke="#231815" stroke-width="2" stroke-miterlimit="10"/>
<path d="M290.346 307.699L370.827 316.873C370.827 316.873 364.337 343.899 330.029 339.973C295.72 336.047 290.346 307.657 290.346 307.657V307.699Z" fill="white" stroke="#231815" stroke-width="2" stroke-linecap="round" stroke-linejoin="round"/>
<path d="M511.579 222.364C535.514 206.58 535.627 164.548 511.831 128.484C488.036 92.4189 449.342 75.9783 425.407 91.7624C401.472 107.547 401.359 149.578 425.155 185.643C448.95 221.708 487.644 238.148 511.579 222.364Z" fill="#946134" stroke="#231815" stroke-width="2" stroke-miterlimit="10"/>
<path d="M488.014 127.026L512.237 111.034C516.949 107.893 523.108 110.414 529.433 120.456C534.228 128.059 535.881 135.085 531.541 137.936L506.243 154.631" fill="#946134"/>
<path d="M488.014 127.026L512.237 111.034C516.949 107.893 523.108 110.414 529.433 120.456C534.228 128.059 535.881 135.085 531.541 137.936L506.243 154.631" stroke="#231815" stroke-width="2" stroke-miterlimit="10"/>
<path d="M509.426 152.524L520.863 145.353L525.712 157.813L528.363 172.353V186.353L509.426 152.524Z" fill="#231815" stroke="#231815" stroke-width="2" stroke-miterlimit="10"/>
<path d="M421.67 117.976C416.71 121.489 423.861 215.792 495.454 217.652" stroke="#502D1A" stroke-width="2" stroke-miterlimit="10" stroke-linecap="round"/>
<path d="M370.827 259.348C374.589 259.018 394.14 258.067 405.012 274.639" stroke="#231815" stroke-width="2" stroke-miterlimit="10" stroke-linecap="round"/>
<path d="M307.831 252.365C304.359 250.96 285.882 244.389 270.67 257.076" stroke="#231815" stroke-width="2" stroke-miterlimit="10" stroke-linecap="round"/>
</svg>
